<svg width="48" height="48" fill="none" xmlns="http://www.w3.org/2000/svg"><path fill="#003B95" d="M0 0h48v48H0z"/><path d="M36.365 38.721c2.003 0 3.635-1.589 3.635-3.543 0-1.958-1.628-3.543-3.635-3.543-1.999 0-3.626 1.585-3.626 3.543 0 1.954 1.627 3.543 3.627 3.543ZM25.364 23.358l-.919-.5.8-.663c.935-.784 2.494-2.533 2.494-5.568C27.739 11.99 24.047 9 18.333 9H11.068C9.37 9.06 8.019 10.399 8 12.062v26.31h10.463c6.354 0 10.456-3.367 10.456-8.58 0-2.813-1.33-5.21-3.555-6.434Zm-11.558-7.451c0-1.361.594-2.01 1.892-2.092h2.597c2.225 0 3.561 1.298 3.561 3.472 0 1.656-.915 3.584-3.481 3.584h-4.569v-4.964ZM18.881 33.4l-5.075-.003v-5.911c0-1.265.506-1.921 1.616-2.07h3.459c2.47 0 4.07 1.514 4.07 3.972 0 2.52-1.558 4.012-4.07 4.012Z" fill="#fff"/></svg>